# xmcd
#
# Track frame offsets:
#	150
#	17565
#	33525
#	50545
#	67932
#	81422
#	95175
#	113010
#	129412
#	147769
#	166094
#	183483
#	199461
#	216421
#	233801
#	247336
#	261136
#	279026
#	295481
#	313816
#
# Disc length: 4650 seconds
#
# Revision: 1
# Processed by: cddbd v1.5.1PL0 Copyright (c) Steve Scherf et al.
# Submitted via: audiograbber 1.83.01
#
DISCID=31122814
DTITLE=Various Artist - Top Hits Monthly Country March 1999
DYEAR=1999
DGENRE=Karaoke
TTITLE0=Brooks and Dunn - I Can't Get Over You (Vocal)
TTITLE1=George Strait - Meanwhile (Vocal)
TTITLE2=Faith Hill - Love Ain't Like That (Vocal)
TTITLE3=Ty Herndon - Hands Of A Working Man (Vocal)
TTITLE4=Patty Loveless - Can't Get Enough (Vocal)
TTITLE5=Vince Gill - Don't Come Cryin To Me (Vocal)
TTITLE6=Mark WIlls - Wish You Were Here (Vocal)
TTITLE7=Linda Davis - I'm Yours (Vocal)
TTITLE8=The Warren Brothers - A Better Man (Vocal)
TTITLE9=Chad Brock - Ordinary Life (Vocal)
TTITLE10=Brooks and Dunn - I Can't Get Over You
TTITLE11=George Strait - Meanwhile
TTITLE12=Faith Hill - Love Ain't Like That
TTITLE13=Ty Herndon - Hands Of A Working Man 
TTITLE14=Patty Loveless - Can't Get Enough 
TTITLE15=Vince Gill - Don't Come Cryin To Me
TTITLE16=Mark WIlls - Wish You Were Here
TTITLE17=Linda Davis - I'm Yours
TTITLE18=The Warren Brothers - A Better Man
TTITLE19=Chad Brock - Ordinary Life
EXTD=
EXTT0=
EXTT1=
EXTT2=
EXTT3=
EXTT4=
EXTT5=
EXTT6=
EXTT7=
EXTT8=
EXTT9=
EXTT10=
EXTT11=
EXTT12=
EXTT13=
EXTT14=
EXTT15=
EXTT16=
EXTT17=
EXTT18=
EXTT19=
PLAYORDER=
